<svg xmlns="http://www.w3.org/2000/svg" width="98.75" height="24.369" viewBox="0 0 98.75 24.369">
  <g id="Group_5" data-name="Group 5" transform="translate(-417.084 -392.522)">
    <path id="Path_5" data-name="Path 5" d="M511.233,415.225a8.274,8.274,0,0,1-3.364-.659,6.261,6.261,0,0,1-2.46-1.889,6.152,6.152,0,0,1-1.218-2.932l3.311-.489a3.688,3.688,0,0,0,1.446,2.227,4.192,4.192,0,0,0,2.5.781,4.763,4.763,0,0,0,1.516-.245,3,3,0,0,0,1.207-.723,1.611,1.611,0,0,0,.472-1.178,1.631,1.631,0,0,0-.076-.5,1.327,1.327,0,0,0-.25-.449,1.85,1.85,0,0,0-.5-.4,3.967,3.967,0,0,0-.81-.338l-4.361-1.283q-.49-.14-1.137-.4a5,5,0,0,1-1.253-.735,3.753,3.753,0,0,1-1.009-1.265,4.352,4.352,0,0,1-.4-1.988,4.508,4.508,0,0,1,.851-2.81,5.074,5.074,0,0,1,2.273-1.667,8.532,8.532,0,0,1,3.148-.536,8.262,8.262,0,0,1,3.1.595,5.957,5.957,0,0,1,2.285,1.661,6.649,6.649,0,0,1,1.329,2.664l-3.428.583a3.035,3.035,0,0,0-.688-1.376,3.3,3.3,0,0,0-1.2-.851,4.041,4.041,0,0,0-1.451-.315,3.9,3.9,0,0,0-1.4.2,2.659,2.659,0,0,0-1.073.659,1.431,1.431,0,0,0-.414,1.026,1.217,1.217,0,0,0,.338.892,2.5,2.5,0,0,0,.851.554,8.3,8.3,0,0,0,1.049.35l2.915.793q.653.175,1.446.46a6.554,6.554,0,0,1,1.521.793,4.032,4.032,0,0,1,1.2,1.335,4.193,4.193,0,0,1,.472,2.1,4.751,4.751,0,0,1-.565,2.361,4.93,4.93,0,0,1-1.522,1.667,6.993,6.993,0,0,1-2.163.985,9.5,9.5,0,0,1-2.489.326" transform="translate(-68.642 -4.127)" fill="#12143a"/>
    <path id="Path_6" data-name="Path 6" d="M577.89,435.989V417.8h2.8v8.628h.4v9.561Zm6.2-5.247a5.111,5.111,0,0,1-5.031-3.253,9.416,9.416,0,0,1-.006-6.786,5.417,5.417,0,0,1,1.854-2.378,5.061,5.061,0,0,1,3.02-.874,5.69,5.69,0,0,1,3.148.863,5.8,5.8,0,0,1,2.081,2.361,8.271,8.271,0,0,1,.012,6.815,5.885,5.885,0,0,1-2.035,2.379,5.34,5.34,0,0,1-3.043.874m-.513-2.822a2.636,2.636,0,0,0,1.679-.513,3.014,3.014,0,0,0,.968-1.382,5.628,5.628,0,0,0,.315-1.93,5.416,5.416,0,0,0-.326-1.918,3.045,3.045,0,0,0-1.009-1.387,2.8,2.8,0,0,0-1.743-.519,2.531,2.531,0,0,0-1.6.478,2.7,2.7,0,0,0-.892,1.341,7.327,7.327,0,0,0,0,4.011,2.639,2.639,0,0,0,.915,1.341,2.753,2.753,0,0,0,1.7.478" transform="translate(-126.718 -19.644)" fill="#12143a"/>
    <path id="Path_7" data-name="Path 7" d="M646.4,430.741a6.408,6.408,0,0,1-3.334-.851,5.907,5.907,0,0,1-2.233-2.349,7.215,7.215,0,0,1-.8-3.445,7.137,7.137,0,0,1,.816-3.469,5.948,5.948,0,0,1,2.25-2.338,6.942,6.942,0,0,1,6.64.012,5.937,5.937,0,0,1,2.244,2.349,7.78,7.78,0,0,1-.006,6.9,5.935,5.935,0,0,1-2.25,2.344,6.453,6.453,0,0,1-3.329.845m0-2.961a2.635,2.635,0,0,0,2.279-1.032,4.392,4.392,0,0,0,.752-2.653,4.315,4.315,0,0,0-.764-2.681,2.672,2.672,0,0,0-2.268-1,2.9,2.9,0,0,0-1.7.466,2.747,2.747,0,0,0-.985,1.294,5.3,5.3,0,0,0-.321,1.924,4.311,4.311,0,0,0,.764,2.688,2.653,2.653,0,0,0,2.245,1" transform="translate(-175.692 -19.644)" fill="#12143a"/>
    <path id="Path_8" data-name="Path 8" d="M708.9,416.089l.023-16.789h3.218v10.26l4.267-6.063h3.918l-4.547,6.3,4.85,6.3H716.5l-4.361-6.063v6.063Z" transform="translate(-229.955 -5.341)" fill="#12143a"/>
    <path id="Path_9" data-name="Path 9" d="M768.581,430.741a6.81,6.81,0,0,1-3.41-.834,6.009,6.009,0,0,1-2.309-2.3,6.65,6.65,0,0,1-.834-3.352,7.514,7.514,0,0,1,.816-3.591,5.941,5.941,0,0,1,2.25-2.372,6.374,6.374,0,0,1,3.3-.845,5.9,5.9,0,0,1,3.369.933,5.48,5.48,0,0,1,2.052,2.623,8.734,8.734,0,0,1,.466,3.976h-3.136v-1.166a4.825,4.825,0,0,0-.612-2.769,2.3,2.3,0,0,0-2-.845,2.827,2.827,0,0,0-2.384.985,4.688,4.688,0,0,0-.764,2.909,4.282,4.282,0,0,0,.764,2.723,2.693,2.693,0,0,0,2.245.962,2.993,2.993,0,0,0,1.6-.408,2.6,2.6,0,0,0,1.014-1.178l3.171.909a5.579,5.579,0,0,1-2.244,2.682,6.215,6.215,0,0,1-3.352.956m-4.174-8.115h8.348v2.355h-8.348Z" transform="translate(-271.821 -19.644)" fill="#12143a"/>
    <path id="Path_10" data-name="Path 10" d="M827.146,430.305V417.713h2.822v4.174h.4v8.418Zm8.6,0v-5.946q0-.431-.047-1.1a4.94,4.94,0,0,0-.291-1.347,2.569,2.569,0,0,0-.8-1.131,2.409,2.409,0,0,0-1.568-.455,3.308,3.308,0,0,0-.874.128,2.164,2.164,0,0,0-.874.5,2.659,2.659,0,0,0-.67,1.079,5.583,5.583,0,0,0-.262,1.889l-1.819-.863a6.566,6.566,0,0,1,.606-2.8,5.02,5.02,0,0,1,1.825-2.11,5.465,5.465,0,0,1,3.072-.8,5.08,5.08,0,0,1,2.413.5,3.976,3.976,0,0,1,1.452,1.271,5.293,5.293,0,0,1,.74,1.6,8.112,8.112,0,0,1,.268,1.521q.047.688.047,1v7.065Z" transform="translate(-323.135 -19.557)" fill="#12143a"/>
    <path id="Path_11" data-name="Path 11" d="M427.281,398.413v-5.89l-10.2,4.679v13.591l4.748-2.178v-7.7l5.449-2.5v7.7l-5.449,2.5v3.865h0v4.412l2.6-3.582,7.591-3.483V396.235Z"/>
  </g>
</svg>
