<svg xmlns="http://www.w3.org/2000/svg" width="16" height="9.306" viewBox="0 0 16 9.306">
  <g id="sGMIt7.tif" transform="translate(-250.769 793.66) rotate(-90)">
    <g id="Group_64" data-name="Group 64" transform="translate(781.007 254.116)">
      <path id="Path_59" data-name="Path 59" d="M789.089,256.841c-.917.858-1.856,1.694-2.746,2.579-1.2,1.188-2.353,2.414-3.529,3.621a.938.938,0,0,1-1.453.066.957.957,0,0,1,0-1.487q3.441-3.549,6.885-7.1a.879.879,0,0,1,1.478-.011q3.468,3.549,6.933,7.1a1,1,0,0,1-.229,1.671.9.9,0,0,1-1.186-.214q-2.892-2.951-5.78-5.906c-.148-.151-.282-.316-.422-.475Z" transform="translate(-250.769 793.66) rotate(-90)" fill="#fff"/>
    </g>
  </g>
</svg>
