<svg xmlns="http://www.w3.org/2000/svg" width="40" height="29.023" viewBox="0 0 40 29.023">
  <path id="Path_71" data-name="Path 71" d="M37.971,7.365A10.949,10.949,0,0,0,33.74,4.636,11.145,11.145,0,0,0,30.1,4a10.9,10.9,0,0,0-9.053,4.776,8.231,8.231,0,0,0-1.138-1.409A10.953,10.953,0,0,0,15.68,4.636,10.983,10.983,0,0,0,1.624,11.371,11.028,11.028,0,0,0,8.356,25.427a10.146,10.146,0,0,0,1.684.455,18.5,18.5,0,0,1-3.185,3.913,1.98,1.98,0,0,0-.682,1.593,1.677,1.677,0,0,0,.773,1.318,2.023,2.023,0,0,0,1.045.318,2.319,2.319,0,0,0,.775-.136,22.981,22.981,0,0,0,8.189-5.549A27.651,27.651,0,0,0,20.5,22.925a12.461,12.461,0,0,0,.729-1.32,10.875,10.875,0,0,0,5.185,3.822,10.146,10.146,0,0,0,1.684.455,18.546,18.546,0,0,1-3.185,3.913,1.979,1.979,0,0,0-.682,1.591,1.678,1.678,0,0,0,.773,1.32,2.023,2.023,0,0,0,1.045.318,2.311,2.311,0,0,0,.775-.136,22.947,22.947,0,0,0,8.189-5.551,27.569,27.569,0,0,0,3.547-4.413,15.547,15.547,0,0,0,1.911-4.276A11.487,11.487,0,0,0,37.971,7.365Z" transform="translate(41 33.023) rotate(180)" fill="#d9e1f2"/>
</svg>
