<svg xmlns="http://www.w3.org/2000/svg" width="20" height="20.2" viewBox="0 0 20 20.2">
  <g id="Group_28" data-name="Group 28" transform="translate(1693 4894.2)">
    <rect id="Rectangle_36" data-name="Rectangle 36" width="20" height="20" transform="translate(-1693 -4894)" fill="#fff" opacity="0"/>
    <path id="Path_57" data-name="Path 57" d="M6.411,9.559A3.286,3.286,0,1,1,9.7,12.845,3.291,3.291,0,0,1,6.411,9.559ZM9.7,7.468A2.112,2.112,0,0,0,7.606,9.559,2.088,2.088,0,0,0,9.7,11.65a2.112,2.112,0,0,0,2.091-2.091A2.137,2.137,0,0,0,9.7,7.468ZM2.565,8.626,1.072,7.244A1.142,1.142,0,0,1,.848,5.788l1.12-1.98a1.144,1.144,0,0,1,1.381-.523l1.942.6A8.028,8.028,0,0,1,6.934,2.95L7.382.971A1.2,1.2,0,0,1,8.54,0h2.278a1.2,1.2,0,0,1,1.157.971l.448,1.979a8.028,8.028,0,0,1,1.643.934l1.942-.6a1.144,1.144,0,0,1,1.381.523l1.121,1.98a1.142,1.142,0,0,1-.225,1.456L16.792,8.626a7.843,7.843,0,0,1,.075.934,7.866,7.866,0,0,1-.075.971l1.494,1.381a1.142,1.142,0,0,1,.225,1.456l-1.121,1.98a1.144,1.144,0,0,1-1.381.523l-1.942-.6a10.266,10.266,0,0,1-1.643.934l-.448,1.979a1.162,1.162,0,0,1-1.157.934H8.54a1.162,1.162,0,0,1-1.157-.934l-.448-1.979a10.266,10.266,0,0,1-1.643-.934l-1.942.6a1.144,1.144,0,0,1-1.381-.523l-1.12-1.98a1.142,1.142,0,0,1,.224-1.456L2.565,10.53a8.1,8.1,0,0,1-.037-.971A7.786,7.786,0,0,1,2.565,8.626ZM6.038,4.855l-.485.374-2.54-.822L1.856,6.386l1.98,1.792-.075.6a5.5,5.5,0,0,0-.037.784,5.763,5.763,0,0,0,.037.821l.075.6L1.856,12.77l1.157,1.98,2.54-.822.485.374a4.585,4.585,0,0,0,1.382.785l.56.261.56,2.576h2.278l.56-2.576.561-.261A4.591,4.591,0,0,0,13.32,14.3l.485-.374,2.54.822L17.5,12.77l-1.979-1.792.074-.6a5.575,5.575,0,0,0,.075-.821,5.553,5.553,0,0,0-.075-.784l-.074-.6L17.5,6.386l-1.157-1.98-2.54.822-.485-.374a5.634,5.634,0,0,0-1.381-.821l-.561-.225-.56-2.614H8.54L7.98,3.809l-.56.225A5.624,5.624,0,0,0,6.038,4.855Z" transform="translate(-1692.679 -4894)" stroke="#000" stroke-width="0.4"/>
  </g>
</svg>
