<svg xmlns="http://www.w3.org/2000/svg" width="20" height="20" viewBox="0 0 20 20">
  <g id="Group_27" data-name="Group 27" transform="translate(1692 4823)">
    <rect id="Rectangle_37" data-name="Rectangle 37" width="20" height="20" transform="translate(-1692 -4823)" fill="#fff" opacity="0"/>
    <g id="Group_26" data-name="Group 26" transform="translate(-1690 -4822.76)">
      <path id="Path_15" data-name="Path 15" d="M9.69,11.59H6.27A6.256,6.256,0,0,0,0,17.86,1.126,1.126,0,0,0,1.14,19H14.82a1.148,1.148,0,0,0,1.14-1.14A6.279,6.279,0,0,0,9.69,11.59Zm-7.98,5.7A4.584,4.584,0,0,1,6.27,13.3H9.69a4.574,4.574,0,0,1,4.524,3.99ZM7.98,9.88A4.56,4.56,0,1,0,3.42,5.32,4.569,4.569,0,0,0,7.98,9.88Zm0-7.41a2.85,2.85,0,0,1,0,5.7,2.85,2.85,0,0,1,0-5.7Z"/>
    </g>
  </g>
</svg>
